# xmcd CD database file
#
# Track frame offsets:
#	150
#	17392
#	29603
#	41548
#	118782
#	132054
#	143549
#	149391
#	159835
#	172649
#	180988
#	193687
#	209620
#	222681
#	236487
#	256634
#	297221
#
# Disc length: 4332 seconds
#
# Revision: 0
# Processed by: cddbd v1.5.2PL0 Copyright (c) Steve Scherf et al.
# Submitted via: CDex 1.70beta2
#
DISCID=e810ea11
DTITLE=Various Artist - Swing from Paris
DYEAR=1900
DGENRE=Jazz
TTITLE0=Quincy Jones - Parisian Thoroughfare
TTITLE1=Sacha Distel - Olympia Orgy
TTITLE2=Bernard Peiffer - Paris, je t'aime ... d'amour
TTITLE3=Max Roach - Parisian Sketches
TTITLE4=Sammy Price - Eiffel Tower
TTITLE5=Le Quintet du Hot Club de France - Swing from Paris
TTITLE6=Henri Crolla - La Parisienne
TTITLE7=Gus Viseur - Ménil montant
TTITLE8=Charlie Lewis - April in Paris
TTITLE9=Michel Legrand - Sous le ciel de Paris
TTITLE10=Bernard Peiffer - Midday on the Champs-Élysées
TTITLE11=Michel Legrand - Paris in the Spring
TTITLE12=Danny Polo - Montmatre Loan
TTITLE13=Pierre Michelot - Sous les ponts de Paris
TTITLE14=Barney Wilen - Swingin' Parisian Rhythm
TTITLE15=Donald Byrd - Parisian Thoroughfare
TTITLE16=Lionel Hampton - Flying at the Olympia
EXTD=
EXTT0=
EXTT1=
EXTT2=
EXTT3=
EXTT4=
EXTT5=
EXTT6=
EXTT7=
EXTT8=
EXTT9=
EXTT10=
EXTT11=
EXTT12=
EXTT13=
EXTT14=
EXTT15=
EXTT16=
PLAYORDER=
